<svg id="fi_5941708" enable-background="new 0 0 64 64" height="16" viewBox="0 0 64 64" width="16" xmlns="http://www.w3.org/2000/svg"><g><path d="m4.855 5.804v52.392c0 2.829 2.293 5.122 5.122 5.122h44.046c2.829 0 5.122-2.293 5.122-5.122v-40.609-2.754c0-1.15-.457-2.253-1.27-3.066l-9.815-9.815c-.813-.813-1.916-1.27-3.066-1.27h-2.756-32.261c-2.829 0-5.122 2.293-5.122 5.122zm5.446.148h32.427v5.602c0 2.96 2.409 5.367 5.367 5.367h5.604v41.127h-43.398z" fill="#3d4652"></path><g fill="#2d7abe"><g><path d="m21.925 44.038h-4c-1.381 0-2.5-1.119-2.5-2.5s1.119-2.5 2.5-2.5h4c1.381 0 2.5 1.119 2.5 2.5s-1.119 2.5-2.5 2.5z"></path><path d="m46.075 44.038h-15c-1.381 0-2.5-1.119-2.5-2.5s1.119-2.5 2.5-2.5h15c1.381 0 2.5 1.119 2.5 2.5s-1.119 2.5-2.5 2.5z"></path><path d="m46.075 52.795h-15c-1.381 0-2.5-1.119-2.5-2.5s1.119-2.5 2.5-2.5h15c1.381 0 2.5 1.119 2.5 2.5s-1.119 2.5-2.5 2.5z"></path><path d="m21.925 52.795h-4c-1.381 0-2.5-1.119-2.5-2.5s1.119-2.5 2.5-2.5h4c1.381 0 2.5 1.119 2.5 2.5s-1.119 2.5-2.5 2.5z"></path></g><g><path d="m21.376 24.339c.311-.306.666-.54 1.084-.717.827-.351 1.772-.34 2.63-.018.41.154.777.395 1.121.738.237.238.509.418.809.535.595.232 1.272.224 1.86-.029.293-.126.555-.301.777-.517.226-.219.407-.477.539-.766.141-.308.212-.638.212-.98 0-.637-.24-1.228-.713-1.726-.831-.831-1.766-1.458-2.781-1.865-2.128-.854-4.57-.789-6.512.089-1.01.457-1.896 1.081-2.632 1.854-.734.77-1.314 1.667-1.724 2.669-.412 1.006-.62 2.074-.62 3.173 0 .758.099 1.503.295 2.214.195.708.478 1.381.84 2 .36.615.795 1.183 1.292 1.686.501.507 1.067.946 1.682 1.306.614.359 1.276.642 1.967.84.704.202 1.442.305 2.196.305 1.081 0 2.146-.204 3.167-.606 1.03-.406 1.973-1.029 2.808-1.856.23-.23.408-.504.529-.815.115-.295.173-.605.173-.921 0-.321-.06-.632-.178-.924-.119-.292-.29-.555-.509-.781-.219-.225-.48-.405-.773-.533-.567-.25-1.266-.268-1.892-.042-.324.116-.608.295-.845.533-.363.363-.738.62-1.116.763-.823.314-1.856.31-2.649-.042-.418-.184-.769-.427-1.072-.742-.307-.318-.541-.677-.716-1.096-.172-.413-.255-.841-.255-1.309 0-.484.088-.921.271-1.337.182-.419.429-.783.735-1.083z"></path><path d="m48.393 19.901c-.116-.281-.283-.538-.495-.763-.216-.229-.474-.413-.771-.55-.732-.333-1.649-.271-2.357.188-.411.269-.72.642-.921 1.118l-2.583 6.315-2.596-6.344c-.205-.459-.52-.828-.935-1.097-.727-.469-1.636-.527-2.369-.181-.291.137-.548.319-.762.54-.22.226-.393.489-.515.781-.125.299-.188.607-.188.917 0 .306.066.623.195.941l4.873 11.887c.202.451.505.815.9 1.084.407.274.857.414 1.422.414h.002c.448-.014.868-.137 1.245-.364.381-.229.679-.549.889-.953.082-.131.144-.268.185-.409l4.771-11.669c.127-.323.191-.644.191-.953.001-.308-.06-.612-.181-.902z"></path></g></g></g></svg>